<svg xmlns="http://www.w3.org/2000/svg" enable-background="new 0 0 24 24" viewBox="0 0 24 24" id="Calendar">
  <path fill="#2bc67c" d="M22 9H2V6a3 3 0 0 1 3-3h14a3 3 0 0 1 3 3v3z" class="colorb2b1ff svgShape"></path>
  <path fill="#dcf1e8" d="M2 19a3.003 3.003 0 0 0 3 3h14a3.003 3.003 0 0 0 3-3V9H2v10z" class="colord8d8ff svgShape"></path>
  <path fill="#2ba09b" d="M7 7a1 1 0 0 1-1-1V2a1 1 0 0 1 2 0v4a1 1 0 0 1-1 1zm10 0a1 1 0 0 1-1-1V2a1 1 0 0 1 2 0v4a1 1 0 0 1-1 1z" class="color6563ff svgShape"></path>
  <circle cx="7" cy="13" r="1" fill="#2ba09b" class="color6563ff svgShape"></circle>
  <circle cx="17" cy="13" r="1" fill="#2ba09b" class="color6563ff svgShape"></circle>
  <circle cx="12" cy="13" r="1" fill="#2ba09b" class="color6563ff svgShape"></circle>
  <circle cx="12" cy="17" r="1" fill="#2ba09b" class="color6563ff svgShape"></circle>
  <circle cx="7" cy="17" r="1" fill="#2ba09b" class="color6563ff svgShape"></circle>
  <circle cx="17" cy="17" r="1" fill="#2ba09b" class="color6563ff svgShape"></circle>
</svg>
