<svg xmlns="http://www.w3.org/2000/svg" viewBox="0 0 24 24" id="UploadFile">
  <path fill="#dcf1e8" d="m19 9-7-7H6a3 3 0 0 0-3 3v14a3 3 0 0 0 3 3h10a3 3 0 0 0 3-3Z" class="colorb2b1ff svgShape"></path>
  <path fill="#2ba09b" d="M19 9h-5a2 2 0 0 1-2-2V2zm-7 9H8a1 1 0 0 1 0-2h4a1 1 0 0 1 0 2zm2-4H8a1 1 0 0 1 0-2h6a1 1 0 0 1 0 2zm-5-4H8a1 1 0 0 1 0-2h1a1 1 0 0 1 0 2zm9 12a1 1 0 0 1-1-1v-5a1 1 0 0 1 2 0v5a1 1 0 0 1-1 1z" class="color6563ff svgShape"></path>
  <path fill="#2ba09b" d="M20 19a.997.997 0 0 1-.707-.293L18 17.414l-1.293 1.293a1 1 0 0 1-1.414-1.414l2-2a1 1 0 0 1 1.414 0l2 2A1 1 0 0 1 20 19Z" class="color6563ff svgShape"></path>
</svg>
