<svg xmlns="http://www.w3.org/2000/svg" viewBox="0 0 24 24" id="Hyperlink">
  <path fill="#dcf1e8" d="M12.979 15.505a4.434 4.434 0 0 1-2.926-1.1 1.848 1.848 0 0 1-.236-.204 1 1 0 0 1 1.401-1.427.55.55 0 0 1 .12.097 2.457 2.457 0 0 0 3.389-.093l4.547-4.548a2.478 2.478 0 0 0-3.504-3.504L14.04 6.454a1 1 0 0 1-1.414-1.414l1.729-1.729a4.478 4.478 0 0 1 6.333 6.333l-4.548 4.548a4.462 4.462 0 0 1-3.162 1.313Z" class="colorb2b1ff svgShape"></path>
  <path fill="#2ba09b" d="M6.478 21.998a4.476 4.476 0 0 1-3.167-7.643L7.86 9.808a4.456 4.456 0 0 1 6.088-.213 1.848 1.848 0 0 1 .236.204 1 1 0 0 1-1.401 1.427.55.55 0 0 1-.12-.097 2.456 2.456 0 0 0-3.389.093L4.726 15.77a2.478 2.478 0 0 0 3.504 3.504l1.729-1.728a1 1 0 0 1 1.414 1.414l-1.728 1.728a4.464 4.464 0 0 1-3.167 1.31Z" class="color6563ff svgShape"></path>
</svg>
