<svg xmlns="http://www.w3.org/2000/svg" viewBox="0 0 24 24" id="SecureLocation">
  <path fill="#dcf1e8" d="M12 22.06a.997.997 0 0 1-.707-.293l-5.304-5.303a8.5 8.5 0 1 1 12.022 0l-5.304 5.303a.997.997 0 0 1-.707.293Z" class="colorb2b1ff svgShape"></path>
  <path fill="#2ba09b" d="M12 14.953a.998.998 0 0 1-.595-.196l-1.369-1.014a4.159 4.159 0 0 1-1.661-3.335v-2.9a.999.999 0 0 1 .372-.779 1.016 1.016 0 0 1 .84-.199 2.269 2.269 0 0 0 1.826-.386 1 1 0 0 1 1.174 0 2.28 2.28 0 0 0 1.825.386 1 1 0 0 1 1.213.978v2.9a4.16 4.16 0 0 1-1.66 3.335l-1.37 1.014a.998.998 0 0 1-.595.196Z" class="color6563ff svgShape"></path>
</svg>
