<svg xmlns="http://www.w3.org/2000/svg" enable-background="new 0 0 24 24" viewBox="0 0 24 24" id="Ribbon">
  <path fill="#dcf1e8" d="M12 19c-.6 0-1-.4-1-1v-4c0-.6.4-1 1-1s1 .4 1 1v4c0 .6-.4 1-1 1z" class="colord8d8ff svgShape"></path>
  <path fill="#2bc67c" d="M13 14.9V18c0 .6-.4 1-1 1s-1-.4-1-1v-3.1c-1.5-.2-2.9-.9-4-2V22c0 .6.4 1 1 1 .2 0 .3 0 .4-.1l3.6-1.8 3.6 1.8c.5.2 1.1 0 1.3-.4.1-.2.1-.3.1-.5v-9.1a6.96 6.96 0 0 1-4 2z" class="colorb2b1ff svgShape"></path>
  <circle cx="12" cy="8" r="7" fill="#2ba09b" class="color6563ff svgShape"></circle>
</svg>
