<svg xmlns="http://www.w3.org/2000/svg" enable-background="new 0 0 24 24" viewBox="0 0 24 24" id="Bill">
  <path fill="#dcf1e8" d="M18 20V3a1 1 0 0 0-1.497-.867L13.5 3.853l-3.003-1.72a1 1 0 0 0-.994 0L6.5 3.853l-3.003-1.72A1 1 0 0 0 2 3v17a2 2 0 0 0 2 2h16a2 2 0 0 1-2-2z" class="colorb2b1ff svgShape"></path>
  <path fill="#2ba09b" d="M21.999 14v6a2 2 0 1 1-4 0v-8h2a2 2 0 0 1 2 2zM11 10H9a1 1 0 1 1 0-2h2a1 1 0 1 1 0 2zm2 4H7a1 1 0 1 1 0-2h6a1 1 0 1 1 0 2zm0 4H7a1 1 0 0 1 0-2h6a1 1 0 1 1 0 2z" class="color6563ff svgShape"></path>
</svg>
