<svg xmlns="http://www.w3.org/2000/svg" enable-background="new 0 0 24 24" viewBox="0 0 24 24" id="Calculator">
  <path fill="#2bc67c" d="M12 12H2V5a3 3 0 0 1 3-3h7v10z" class="colorb2b1ff svgShape"></path>
  <path fill="#dcf1e8" d="M22 12H12V2h7a3 3 0 0 1 3 3v7zM12 22H5a3 3 0 0 1-3-3v-7h10v10z" class="colord8d8ff svgShape"></path>
  <path fill="#2bc67c" d="M19 22h-7V12h10v7a3 3 0 0 1-3 3z" class="colorb2b1ff svgShape"></path>
  <path fill="#2ba09b" d="M8.5 6H8v-.5a1 1 0 0 0-2 0V6h-.5a1 1 0 0 0 0 2H6v.5a1 1 0 1 0 2 0V8h.5a1 1 0 1 0 0-2zm10 2h-3a1 1 0 1 1 0-2h3a1 1 0 0 1 0 2zm0 8.5h-3a1 1 0 1 1 0-2h3a1 1 0 1 1 0 2zm0 3h-3a1 1 0 1 1 0-2h3a1 1 0 0 1 0 2zM8.414 17l.707-.707a1 1 0 0 0-1.414-1.414L7 15.586l-.707-.707a1 1 0 1 0-1.414 1.414l.707.707-.707.707a1 1 0 0 0 1.414 1.414L7 18.414l.707.707a1 1 0 0 0 1.414-1.414L8.414 17z" class="color6563ff svgShape"></path>
</svg>
