<svg width="130" height="130" viewBox="0 0 130 130" fill="none" xmlns="http://www.w3.org/2000/svg">
<g clip-path="url(#clip0_468_8648)">
<path d="M126.976 43.1167H33.0273V104.238H126.976V43.1167Z" fill="white"/>
<path d="M126.974 107.032H33.0257C31.4705 107.032 30.2109 105.782 30.2109 104.238V43.1167C30.2109 41.5734 31.4705 40.3235 33.0257 40.3235H126.974C128.529 40.3235 129.789 41.5734 129.789 43.1167V104.238C129.789 105.782 128.529 107.032 126.974 107.032ZM35.8404 101.445H124.159V45.9098H35.8404V101.445Z" fill="url(#paint0_linear_468_8648)"/>
<path d="M127.187 29.7932H32.8164V43.1167H127.187V29.7932Z" fill="white"/>
<path d="M127.185 45.9098H32.8147C31.2596 45.9098 30 44.6599 30 43.1167V29.7932C30 28.2499 31.2596 27 32.8147 27H127.185C128.74 27 130 28.2499 130 29.7932V43.1167C130 44.6599 128.74 45.9098 127.185 45.9098ZM35.6294 40.3235H124.371V32.5864H35.6294V40.3235Z" fill="url(#paint1_linear_468_8648)"/>
<path d="M119.444 50.6514H40.5469V96.7039H119.444V50.6514Z" fill="#D9EFE5"/>
<path d="M57.4297 116.856C57.4297 122.017 67.5345 126.2 80.0037 126.2C92.473 126.2 102.578 122.017 102.578 116.856V103.638H57.4297V116.856Z" fill="white"/>
<path d="M80.0021 129C67.3851 129 54.6133 124.831 54.6133 116.863V103.645C54.6133 102.102 55.8729 100.852 57.428 100.852H102.576C104.131 100.852 105.391 102.102 105.391 103.645V116.863C105.391 124.831 92.619 129 80.0021 129ZM60.2427 106.431V116.856C60.2427 119.468 68.1239 123.406 80.0021 123.406C91.8802 123.406 99.7614 119.461 99.7614 116.856V106.431H60.2427Z" fill="#2BC67C"/>
<path d="M102.578 103.638C102.578 108.798 92.473 112.981 80.0037 112.981C67.5345 112.981 57.4297 108.798 57.4297 103.638C57.4297 98.4772 67.5345 94.2944 80.0037 94.2944C92.473 94.2944 102.578 98.4772 102.578 103.638Z" fill="white"/>
<path d="M80.0021 115.781C67.3851 115.781 54.6133 111.612 54.6133 103.645C54.6133 95.6771 67.3851 91.5083 80.0021 91.5083C92.619 91.5083 105.391 95.6771 105.391 103.645C105.391 111.612 92.619 115.781 80.0021 115.781ZM80.0021 97.0877C68.1239 97.0877 60.2427 101.033 60.2427 103.638C60.2427 106.242 68.1239 110.188 80.0021 110.188C91.8802 110.188 99.7614 106.242 99.7614 103.638C99.7614 101.033 91.8802 97.0877 80.0021 97.0877Z" fill="#2BC67C"/>
<path d="M57.4297 103.638C57.4297 108.798 67.5345 112.981 80.0037 112.981C92.473 112.981 102.578 108.798 102.578 103.638V90.4189H57.4297V103.638Z" fill="white"/>
<path d="M80.0021 115.781C67.3851 115.781 54.6133 111.612 54.6133 103.645V90.426C54.6133 88.8828 55.8729 87.6328 57.428 87.6328H102.576C104.131 87.6328 105.391 88.8828 105.391 90.426V103.645C105.391 111.612 92.619 115.781 80.0021 115.781ZM60.2427 93.2122V103.638C60.2427 106.249 68.1239 110.188 80.0021 110.188C91.8802 110.188 99.7614 106.242 99.7614 103.638V93.2122H60.2427Z" fill="#2BC67C"/>
<path d="M102.578 90.4191C102.578 95.5795 92.473 99.7623 80.0037 99.7623C67.5345 99.7623 57.4297 95.5795 57.4297 90.4191C57.4297 85.2587 67.5345 81.0759 80.0037 81.0759C92.473 81.0759 102.578 85.2587 102.578 90.4191Z" fill="white"/>
<path d="M80.0021 102.563C67.3851 102.563 54.6133 98.3937 54.6133 90.4262C54.6133 82.4586 67.3851 78.2898 80.0021 78.2898C92.619 78.2898 105.391 82.4586 105.391 90.4262C105.391 98.3937 92.619 102.563 80.0021 102.563ZM80.0021 83.8692C68.1239 83.8692 60.2427 87.8145 60.2427 90.4192C60.2427 93.0238 68.1239 96.9692 80.0021 96.9692C91.8802 96.9692 99.7614 93.0238 99.7614 90.4192C99.7614 87.8145 91.8802 83.8692 80.0021 83.8692Z" fill="#2BC67C"/>
<path d="M57.4297 90.4189C57.4297 95.5793 67.5345 99.7621 80.0037 99.7621C92.473 99.7621 102.578 95.5793 102.578 90.4189V77.2002H57.4297V90.4189Z" fill="white"/>
<path d="M80.0021 102.562C67.3851 102.562 54.6133 98.3935 54.6133 90.426V77.2072C54.6133 75.664 55.8729 74.4141 57.428 74.4141H102.576C104.131 74.4141 105.391 75.664 105.391 77.2072V90.426C105.391 98.3935 92.619 102.562 80.0021 102.562ZM60.2427 80.0004V90.426C60.2427 93.0376 68.1239 96.976 80.0021 96.976C91.8802 96.976 99.7614 93.0306 99.7614 90.426V80.0004H60.2427Z" fill="#2BC67C"/>
<path d="M102.578 77.2074C102.578 82.3678 92.473 86.5505 80.0037 86.5505C67.5345 86.5505 57.4297 82.3678 57.4297 77.2074C57.4297 72.047 67.5345 67.8572 80.0037 67.8572C92.473 67.8572 102.578 72.04 102.578 77.2074Z" fill="white"/>
<path d="M80.0021 89.3437C67.3851 89.3437 54.6133 85.1749 54.6133 77.2073C54.6133 69.2398 67.3851 65.064 80.0021 65.064C92.619 65.064 105.391 69.2328 105.391 77.2073C105.391 85.1819 92.619 89.3437 80.0021 89.3437ZM80.0021 70.6503C68.1239 70.6503 60.2427 74.5957 60.2427 77.2073C60.2427 79.8189 68.1239 83.7573 80.0021 83.7573C91.8802 83.7573 99.7614 79.812 99.7614 77.2073C99.7614 74.6027 91.8802 70.6503 80.0021 70.6503Z" fill="#2BC67C"/>
<path d="M44.7757 42.8304C43.2205 42.8304 41.9609 41.5804 41.9609 40.0372V33.55C41.9609 32.0068 43.2205 30.7568 44.7757 30.7568C46.3308 30.7568 47.5904 32.0068 47.5904 33.55V40.0372C47.5904 41.5804 46.3308 42.8304 44.7757 42.8304Z" fill="#2BC67C"/>
<path d="M53.4124 42.8304C51.8572 42.8304 50.5977 41.5804 50.5977 40.0372V33.55C50.5977 32.0068 51.8572 30.7568 53.4124 30.7568C54.9675 30.7568 56.2271 32.0068 56.2271 33.55V40.0372C56.2271 41.5804 54.9675 42.8304 53.4124 42.8304Z" fill="#2BC67C"/>
<path d="M62.0452 42.8304C60.4901 42.8304 59.2305 41.5804 59.2305 40.0372V33.55C59.2305 32.0068 60.4901 30.7568 62.0452 30.7568C63.6003 30.7568 64.8599 32.0068 64.8599 33.55V40.0372C64.8599 41.5804 63.6003 42.8304 62.0452 42.8304Z" fill="#2BC67C"/>
</g>
<defs>
<linearGradient id="paint0_linear_468_8648" x1="130" y1="27" x2="44.5" y2="107" gradientUnits="userSpaceOnUse">
<stop stop-color="#2BD97C"/>
<stop offset="0.552885" stop-color="#2BC67C"/>
<stop offset="1" stop-color="#2BA09B"/>
</linearGradient>
<linearGradient id="paint1_linear_468_8648" x1="-0.999999" y1="84.5" x2="135" y2="27" gradientUnits="userSpaceOnUse">
<stop stop-color="#2BA09B"/>
<stop offset="0.683735" stop-color="#2BD97C"/>
<stop offset="1" stop-color="#2BD97C"/>
</linearGradient>
<clipPath id="clip0_468_8648">
<rect width="100" height="102" fill="white" transform="translate(30 27)"/>
</clipPath>
</defs>
</svg>
