<svg width="80" height="80" viewBox="0 0 80 80" fill="none" xmlns="http://www.w3.org/2000/svg">
<g clip-path="url(#clip0_468_3419)">
<path d="M80 4C80 1.79086 78.2091 0 76 0H5C2.23333 0 0 2.45667 0 5.5V62C0 64.2091 1.79086 66 4 66H76C78.2091 66 80 64.2091 80 62V4Z" fill="#D9EFE5"/>
<path d="M0 60V65C0 67.7667 2.23333 70 5 70H75C77.7667 70 80 67.7667 80 65V60H0Z" fill="#2BC67C"/>
<path d="M50 70H30V80H50V70Z" fill="#2BC67C"/>
<path d="M58.1159 76.6667H21.8659C20.9454 76.6667 20.1992 77.4129 20.1992 78.3334C20.1992 79.2539 20.9454 80.0001 21.8659 80.0001H58.1159C59.0364 80.0001 59.7826 79.2539 59.7826 78.3334C59.7826 77.4129 59.0364 76.6667 58.1159 76.6667Z" fill="#2BC67C"/>
<path d="M39.9987 66.6666C40.9192 66.6666 41.6654 65.9204 41.6654 64.9999C41.6654 64.0794 40.9192 63.3333 39.9987 63.3333C39.0782 63.3333 38.332 64.0794 38.332 64.9999C38.332 65.9204 39.0782 66.6666 39.9987 66.6666Z" fill="white"/>
</g>
<g clip-path="url(#clip1_468_3419)">
<path d="M29.2488 24.1502C31.944 24.1502 34.1265 21.9608 34.1265 19.257C34.1265 16.5533 31.944 14.3591 29.2488 14.3591C26.5536 14.3591 24.3711 16.5486 24.3711 19.2523C24.3711 21.9561 26.5536 24.1455 29.2488 24.1455V24.1502Z" fill="#2BC67C"/>
<path d="M33.6416 24.4192H33.6275C32.4469 25.429 30.9182 26.0424 29.2484 26.0424C27.5786 26.0424 26.0499 25.429 24.8693 24.4192H24.8552C21.8025 24.9949 19.4883 27.6797 19.4883 30.912V34.4038H39.0038V30.912C39.0038 27.6797 36.6943 24.9949 33.6416 24.4192Z" fill="#2BC67C"/>
<path d="M44.8516 36.1307C44.8516 38.8345 47.0341 41.0239 49.7293 41.0239C52.4245 41.0239 54.607 38.8345 54.607 36.1307C54.607 33.427 52.4245 31.2375 49.7293 31.2375C47.0341 31.2375 44.8516 33.427 44.8516 36.1307Z" fill="#2BC67C"/>
<path d="M54.126 41.2976H54.1119C52.9313 42.3074 51.4026 42.9208 49.7328 42.9208C48.063 42.9208 46.5343 42.3074 45.3537 41.2976H45.3395C42.2869 41.8733 39.9727 44.5582 39.9727 47.7904V51.2822H59.4882V47.7904C59.4882 44.5582 57.1787 41.8733 54.126 41.2976Z" fill="#2BC67C"/>
<path d="M31.2914 42.8164C31.2652 42.5415 31.4916 42.317 31.7677 42.317H33.5017C33.9468 42.317 34.17 41.7792 33.8558 41.464L29.7404 37.3355C29.545 37.1395 29.2275 37.1395 29.0321 37.3355L24.9167 41.464C24.6025 41.7792 24.8257 42.317 25.2708 42.317H27.0048C27.2809 42.317 27.5033 42.5412 27.5185 42.8169C27.7686 47.3642 31.4092 51.0168 35.9418 51.2685C36.2175 51.2838 36.4418 51.0585 36.4418 50.7823V48.0074C36.4418 47.7313 36.2172 47.51 35.9423 47.4835C33.4849 47.2468 31.5266 45.2819 31.2914 42.8164Z" fill="#2BA09B"/>
<path d="M47.791 22.825C47.8172 23.0999 47.5908 23.3245 47.3147 23.3245H45.5807C45.1356 23.3245 44.9124 23.8623 45.2266 24.1775L49.342 28.306C49.5374 28.502 49.8549 28.502 50.0502 28.306L54.1657 24.1775C54.4799 23.8623 54.2566 23.3245 53.8116 23.3245H52.0776C51.8015 23.3245 51.579 23.1002 51.5639 22.8245C51.3138 18.2773 47.6732 14.6247 43.1406 14.373C42.8649 14.3577 42.6406 14.583 42.6406 14.8591V17.634C42.6406 17.9102 42.8652 18.1315 43.14 18.1579C45.5975 18.3946 47.5558 20.3596 47.791 22.825Z" fill="#2BA09B"/>
</g>
<defs>
<clipPath id="clip0_468_3419">
<rect width="80" height="80" fill="white"/>
</clipPath>
<clipPath id="clip1_468_3419">
<rect width="40" height="36.9231" fill="white" transform="translate(19.4883 14.3591)"/>
</clipPath>
</defs>
</svg>
