<svg width="130" height="130" viewBox="0 0 130 130" fill="none" xmlns="http://www.w3.org/2000/svg">
<path d="M69.6964 111.686C68.0728 111.686 66.7578 110.371 66.7578 108.748V29.2523C66.7578 27.6287 68.0728 26.3137 69.6964 26.3137C71.3199 26.3137 72.6349 27.6287 72.6349 29.2523V108.741C72.6349 110.364 71.3199 111.679 69.6964 111.679V111.686Z" fill="#2BC67C"/>
<path d="M97.334 100.182C96.5846 100.182 95.828 99.8954 95.2549 99.3224L39.0548 43.1076C37.9088 41.9615 37.9088 40.1029 39.0548 38.9495C40.2009 37.8035 42.0595 37.8035 43.2129 38.9495L99.4204 95.1569C100.566 96.303 100.566 98.1616 99.4204 99.315C98.8473 99.888 98.098 100.175 97.3413 100.175L97.334 100.182Z" fill="#2BC67C"/>
<path d="M108.743 72.5005H29.255C27.6314 72.5005 26.3164 71.1855 26.3164 69.562C26.3164 67.9384 27.6314 66.6234 29.255 66.6234H108.743C110.367 66.6234 111.682 67.9384 111.682 69.562C111.682 71.1855 110.367 72.5005 108.743 72.5005Z" fill="#2BC67C"/>
<path d="M41.0284 101.071C40.2791 101.071 39.5224 100.784 38.9494 100.211C37.8033 99.0652 37.8033 97.2066 38.9494 96.0532L95.1642 39.8457C96.3102 38.6997 98.1762 38.6997 99.3222 39.8457C100.468 40.9918 100.468 42.8504 99.3222 44.0038L43.1074 100.211C42.5344 100.784 41.7851 101.071 41.0284 101.071Z" fill="#2BC67C"/>
<path d="M94.3859 67.4977C94.3859 81.1693 83.3002 92.2551 69.6285 92.2551C55.9568 92.2551 44.8711 81.1693 44.8711 67.4977C44.8711 53.826 55.9568 42.7402 69.6285 42.7402C83.3002 42.7402 94.3859 53.826 94.3859 67.4977Z" fill="#F5F5F5"/>
<path d="M69.6296 95.2009C54.3564 95.2009 41.9336 82.7782 41.9336 67.505C41.9336 52.2318 54.3564 39.809 69.6296 39.809C84.9028 39.809 97.3256 52.2318 97.3256 67.505C97.3256 82.7782 84.9028 95.2009 69.6296 95.2009ZM69.6296 45.6787C57.5962 45.6787 47.8107 55.4642 47.8107 67.4976C47.8107 79.531 57.5962 89.3165 69.6296 89.3165C81.663 89.3165 91.4484 79.5237 91.4484 67.4976C91.4484 55.4715 81.6557 45.6787 69.6296 45.6787Z" fill="url(#paint0_linear_468_3484)"/>
<path d="M78.7008 60.5627C78.7008 65.573 74.6382 69.6282 69.628 69.6282C64.6177 69.6282 60.5625 65.5656 60.5625 60.5627C60.5625 55.5598 64.6251 51.4899 69.628 51.4899C74.6309 51.4899 78.7008 55.5524 78.7008 60.5627Z" fill="#95E2BD"/>
<path d="M85.0925 79.4944C85.0043 73.9919 80.5377 69.562 75.0132 69.562H64.2433C58.7262 69.562 54.2522 73.9919 54.1641 79.4944H85.0925Z" fill="#95E2BD"/>
<path d="M77.9002 21.0536C77.9002 25.579 74.227 29.2596 69.6942 29.2596C65.1615 29.2596 61.4883 25.5863 61.4883 21.0536C61.4883 16.5209 65.1615 12.8477 69.6942 12.8477C74.227 12.8477 77.9002 16.5209 77.9002 21.0536Z" fill="#F5F5F5"/>
<path d="M69.6953 32.1907C63.5537 32.1907 58.5508 27.1952 58.5508 21.0462C58.5508 14.8973 63.5537 9.90906 69.6953 9.90906C75.8369 9.90906 80.8398 14.9046 80.8398 21.0536C80.8398 27.2025 75.8442 32.1981 69.6953 32.1981V32.1907ZM69.6953 15.7862C66.7935 15.7862 64.4279 18.1517 64.4279 21.0536C64.4279 23.9554 66.7861 26.321 69.6953 26.321C72.6045 26.321 74.9627 23.9628 74.9627 21.0536C74.9627 18.1444 72.6045 15.7862 69.6953 15.7862Z" fill="#2BC67C"/>
<path d="M77.8342 116.946C77.8342 121.479 74.161 125.145 69.6283 125.145C65.0956 125.145 61.4297 121.472 61.4297 116.946C61.4297 112.421 65.1029 108.74 69.6283 108.74C74.1537 108.74 77.8342 112.414 77.8342 116.946Z" fill="#F5F5F5"/>
<path d="M69.6294 128.091C63.4878 128.091 58.4922 123.095 58.4922 116.954C58.4922 110.812 63.4878 105.809 69.6294 105.809C75.771 105.809 80.7739 110.805 80.7739 116.954C80.7739 123.103 75.7783 128.091 69.6294 128.091ZM69.6294 111.686C66.7275 111.686 64.3693 114.045 64.3693 116.954C64.3693 119.863 66.7275 122.214 69.6294 122.214C72.5312 122.214 74.8967 119.856 74.8967 116.954C74.8967 114.052 72.5385 111.686 69.6294 111.686Z" fill="#2BC67C"/>
<path d="M41.1234 29.4284C44.3264 32.6314 44.3264 37.8254 41.1234 41.0284C37.9203 44.2314 32.7264 44.2314 29.5234 41.0284C26.3203 37.8254 26.3203 32.6314 29.5234 29.4284C32.7264 26.2254 37.9203 26.2254 41.1234 29.4284Z" fill="#F5F5F5"/>
<path d="M35.3286 46.3767C32.3533 46.3767 29.5543 45.2159 27.4532 43.1075C25.3521 41.0064 24.1914 38.2074 24.1914 35.2321C24.1914 32.2568 25.3521 29.4579 27.4532 27.3568C29.5543 25.2557 32.3533 24.095 35.3286 24.095C38.3039 24.095 41.1029 25.2557 43.2039 27.3568C47.5457 31.7059 47.5457 38.7731 43.2039 43.1148C41.1029 45.2233 38.3039 46.3767 35.3286 46.3767ZM35.3286 29.9721C33.9254 29.9721 32.6031 30.5157 31.6039 31.5149C30.6122 32.5066 30.0612 33.8363 30.0612 35.2395C30.0612 36.6427 30.6122 37.965 31.6039 38.9568C32.5957 39.9559 33.9181 40.4995 35.3286 40.4995C36.7391 40.4995 38.0541 39.9485 39.0532 38.9568C41.1029 36.9071 41.1029 33.5645 39.0532 31.5149C38.0614 30.5231 36.7391 29.9795 35.3286 29.9795V29.9721Z" fill="#2BC67C"/>
<path d="M108.889 97.2946C112.092 100.498 112.092 105.692 108.889 108.895C105.686 112.098 100.492 112.098 97.289 108.895C94.086 105.692 94.086 100.498 97.289 97.2946C100.492 94.0916 105.686 94.0916 108.889 97.2946Z" fill="#F5F5F5"/>
<path d="M103.094 114.228C100.119 114.228 97.3199 113.067 95.2188 110.966C90.8698 106.617 90.8698 99.5501 95.2188 95.2083C97.3273 93.1073 100.119 91.9465 103.094 91.9465C106.069 91.9465 108.868 93.1073 110.977 95.2083C113.078 97.3094 114.239 100.108 114.239 103.084C114.239 106.059 113.078 108.858 110.977 110.966C108.876 113.067 106.077 114.228 103.102 114.228H103.094ZM103.087 97.8237C101.684 97.8237 100.361 98.3673 99.3696 99.3664C97.3199 101.416 97.3199 104.759 99.3696 106.816C100.361 107.807 101.684 108.358 103.094 108.358C104.505 108.358 105.82 107.807 106.811 106.816C107.803 105.824 108.354 104.494 108.354 103.091C108.354 101.688 107.803 100.366 106.811 99.3738C105.812 98.3746 104.497 97.831 103.087 97.831V97.8237Z" fill="#2BC67C"/>
<path d="M21.0536 61.3633C25.5863 61.3633 29.2596 65.0365 29.2596 69.5692C29.2596 74.102 25.5863 77.7752 21.0536 77.7752C16.5209 77.7752 12.8477 74.102 12.8477 69.5692C12.8477 65.0365 16.5209 61.3706 21.0536 61.3633Z" fill="#F5F5F5"/>
<path d="M21.0551 80.7065C14.9135 80.7065 9.91797 75.7109 9.91797 69.562C9.91797 63.413 14.9135 58.4248 21.0551 58.4175C27.2041 58.4175 32.1997 63.4204 32.1997 69.562C32.1997 75.7036 27.2041 80.7065 21.0625 80.7065H21.0551ZM21.0478 64.302C18.146 64.302 15.7878 66.6675 15.7878 69.5693C15.7878 72.4712 18.146 74.8367 21.0551 74.8367C23.957 74.8367 26.3152 72.4785 26.3152 69.5693C26.3152 66.6602 23.9496 64.3093 21.0478 64.302Z" fill="#2BC67C"/>
<path d="M116.948 61.4296C121.481 61.4296 125.154 65.1028 125.154 69.6355C125.154 74.1609 121.481 77.8341 116.948 77.8415C112.415 77.8415 108.742 74.1683 108.742 69.6355C108.742 65.1028 112.415 61.4296 116.948 61.4296Z" fill="#F5F5F5"/>
<path d="M116.957 80.7727C110.815 80.7727 105.812 75.7771 105.812 69.6282C105.812 63.4792 110.808 58.4836 116.957 58.4836C123.106 58.4836 128.102 63.4792 128.102 69.6282C128.102 75.7698 123.106 80.7653 116.964 80.7727H116.957ZM116.957 64.3681C114.048 64.3681 111.69 66.7263 111.69 69.6355C111.69 72.5447 114.048 74.8955 116.95 74.9029C119.852 74.9029 122.217 72.5373 122.217 69.6355C122.217 66.7337 119.859 64.3681 116.957 64.3681Z" fill="#2BC67C"/>
<path d="M29.4296 98.1323C32.6327 94.9292 37.8266 94.9292 41.0296 98.1323C44.2327 101.335 44.2327 106.537 41.0296 109.74C37.8266 112.943 32.6327 112.943 29.4296 109.74C26.2266 106.537 26.2266 101.343 29.4296 98.1396V98.1323Z" fill="#F5F5F5"/>
<path d="M35.2328 115.081C32.2575 115.081 29.4585 113.92 27.35 111.819C23.0083 107.477 23.0083 100.41 27.35 96.0606C29.4585 93.9522 32.2575 92.7988 35.2328 92.7988C38.2081 92.7988 41.007 93.9596 43.1081 96.0606C45.2165 98.1691 46.3699 100.968 46.3699 103.943C46.3699 106.919 45.2092 109.718 43.1081 111.826C41.007 113.927 38.2081 115.088 35.2328 115.088V115.081ZM35.2328 98.6686C33.8222 98.6686 32.4999 99.2196 31.5008 100.211C29.4511 102.261 29.4511 105.604 31.5008 107.653C32.4925 108.645 33.8149 109.196 35.2254 109.196C36.6359 109.196 37.9509 108.645 38.9427 107.653C39.9418 106.654 40.4854 105.332 40.4854 103.929C40.4854 102.525 39.9345 101.196 38.9427 100.204C37.9509 99.2123 36.6286 98.6686 35.2254 98.6686H35.2328Z" fill="#2BC67C"/>
<path d="M97.289 30.376C100.492 27.173 105.686 27.173 108.889 30.376C112.092 33.5791 112.092 38.773 108.889 41.976C105.686 45.1791 100.485 45.1791 97.289 41.976C94.086 38.773 94.086 33.5791 97.289 30.376Z" fill="#F5F5F5"/>
<path d="M103.094 47.317C100.119 47.317 97.3199 46.1562 95.2188 44.0552C93.1104 41.9467 91.957 39.1477 91.957 36.1724C91.957 33.1971 93.1178 30.3982 95.2262 28.2971C97.3273 26.196 100.126 25.0353 103.102 25.0353C106.077 25.0353 108.876 26.196 110.984 28.2971C115.326 32.6388 115.326 39.7061 110.984 44.0478C108.876 46.1562 106.077 47.3096 103.102 47.3096L103.094 47.317ZM103.094 30.9124C101.691 30.9124 100.369 31.4634 99.3769 32.4552C98.3778 33.4543 97.8342 34.7693 97.8342 36.1798C97.8342 37.583 98.3851 38.9053 99.3769 39.9044C100.369 40.8962 101.691 41.4472 103.102 41.4472C104.512 41.4472 105.834 40.8962 106.826 39.9044C108.876 37.8548 108.876 34.5122 106.826 32.4625C105.827 31.4634 104.505 30.9198 103.102 30.9198L103.094 30.9124Z" fill="#2BC67C"/>
<defs>
<linearGradient id="paint0_linear_468_3484" x1="90.5015" y1="34.5" x2="48.5015" y2="86" gradientUnits="userSpaceOnUse">
<stop stop-color="#2BD97C"/>
<stop offset="0.471154" stop-color="#2BC67C"/>
<stop offset="1" stop-color="#2BA09B"/>
</linearGradient>
</defs>
</svg>
